<svg width="207" height="33" viewBox="0 0 207 33" fill="none" xmlns="http://www.w3.org/2000/svg">
<g clip-path="url(#clip0_2_713)">
<path d="M32.7202 22.5902C32.7396 23.3172 32.9525 24.0188 33.0049 24.7407C33.1614 26.9816 32.8603 29.0923 31.3123 30.8519C31.1563 31.0289 30.9981 31.1793 30.7755 31.2554C30.7083 31.1805 30.6167 31.1655 30.5256 31.1401C29.4963 30.8346 28.8177 30.0044 28.6958 28.9176C29.5247 28.0615 29.786 26.9891 29.839 25.8378C29.8492 24.585 29.5896 23.3818 29.1923 22.2057C29.1621 22.1163 29.1393 22.02 29.0215 22.0143C29.1057 21.8551 29.0215 21.715 28.9645 21.5755C28.5986 20.6092 28.1713 19.6679 27.6853 18.7574C26.6619 16.8753 25.4498 15.1051 24.068 13.4747C22.9732 12.1769 21.8158 10.942 20.548 9.81315C20.339 9.62693 20.2337 9.64019 20.0447 9.82468C19.5044 10.3603 18.9186 10.8503 18.3937 11.4021C16.7906 13.0896 15.2967 14.8699 14.0448 16.8462C13.0616 18.3994 12.1946 20.0125 11.5888 21.76C11.5485 21.799 11.5145 21.8441 11.4881 21.8938C11.0639 23.1275 10.7873 24.3924 10.7263 25.6989C10.7218 25.7951 10.7263 25.8897 10.8072 25.9612C10.8072 27.1459 11.1898 28.1774 12.0027 29.0387C11.6845 30.1975 10.9985 30.9851 9.8092 31.2629C9.70957 31.2128 9.57806 31.2629 9.49551 31.1626C8.40131 29.8574 7.76084 28.378 7.62364 26.6472C7.51491 25.2722 7.73067 23.9474 7.96522 22.6115C8.01835 22.5124 8.06347 22.409 8.10015 22.3025C8.34446 21.3667 8.65399 20.4497 9.02641 19.5582C9.09074 19.4026 9.16987 19.2475 9.16304 19.0699C11.1721 14.5868 14.1604 10.8399 17.7242 7.5053C17.6149 7.41479 17.5608 7.36463 17.501 7.32139C16.1772 6.35877 14.7703 5.5192 13.2973 4.81291C11.8678 4.12857 10.3939 3.59642 8.81918 3.38023C7.24449 3.16403 5.74836 3.26492 4.49874 4.42317C3.91919 4.40011 3.45863 4.1205 3.04474 3.73538C2.61207 3.33181 2.37068 2.82387 2.23462 2.25599C2.46746 1.79073 2.87452 1.50362 3.28613 1.23034C4.47483 0.44165 5.79561 0.0968849 7.20635 0.0478799C9.52853 -0.0328343 11.7038 0.570223 13.8222 1.4673C15.9645 2.37591 17.9434 3.57568 19.8164 4.95993C19.8962 5.01212 19.9723 5.06992 20.0441 5.13288C20.232 5.31968 20.38 5.27067 20.581 5.11732C21.6373 4.3049 22.7462 3.56489 23.9 2.90228C25.9216 1.74922 28.0218 0.791614 30.3064 0.303293C31.8788 -0.0328242 33.4592 -0.130837 35.0384 0.228341C36.1361 0.473333 37.1539 0.998005 37.9954 1.75268C38.1575 1.88724 38.2854 2.05925 38.3683 2.25426C38.2783 2.98069 37.8707 3.50821 37.3435 3.97059C37.0202 4.25367 36.6086 4.32862 36.2402 4.50504C36.1133 4.42202 35.9709 4.3563 35.8628 4.2531C35.3618 3.77862 34.7657 3.51052 34.0979 3.39233C32.5819 3.12309 31.1142 3.39233 29.6773 3.85355C27.3665 4.60304 25.2595 5.76591 23.2886 7.18821C23.1559 7.28449 22.9709 7.33061 22.922 7.52202C24.0765 8.68834 25.2601 9.82006 26.3196 11.0757C28.0981 13.1835 29.6591 15.4372 30.9093 17.9099C31.1222 18.332 31.2429 18.807 31.5668 19.1697C31.5201 19.285 31.5668 19.3945 31.6067 19.5C31.9838 20.4149 32.3027 21.3533 32.5614 22.3094C32.5859 22.4144 32.5864 22.5452 32.7202 22.5902Z" fill="white"/>
<path d="M136.497 13.2666H137.722C138.367 13.2666 139.013 13.281 139.658 13.2602C139.954 13.2504 140.096 13.3611 140.182 13.6419C140.517 14.7413 140.868 15.8367 141.215 16.9327C141.753 18.63 142.292 20.3271 142.834 22.0241C142.874 22.1503 142.934 22.2702 142.986 22.3965C143.233 22.3706 143.219 22.1497 143.271 22.0114C144.076 19.839 144.875 17.6645 145.668 15.4879C145.767 15.2181 145.871 14.95 145.974 14.6808C146.222 14.0357 146.067 14.0829 146.801 14.0806C147.674 14.0779 148.547 14.0779 149.42 14.0806C149.928 14.0806 149.935 14.0806 150.114 14.5592C150.81 16.4242 151.5 18.2922 152.196 20.1573C152.475 20.9067 152.765 21.6516 153.044 22.3821C153.252 22.3769 153.255 22.2535 153.288 22.1515C154.155 19.353 155.022 16.5547 155.89 13.7566C156.04 13.2718 156.039 13.2689 156.552 13.2683C157.577 13.2683 158.599 13.2683 159.641 13.2683C159.641 13.6586 159.476 13.9682 159.37 14.2888C158.339 17.3993 157.304 20.508 156.264 23.6147C155.961 24.5233 155.646 25.4273 155.353 26.3394C155.284 26.5556 155.189 26.6519 154.955 26.6501C153.816 26.6415 152.677 26.6392 151.539 26.6501C151.272 26.6501 151.192 26.5158 151.112 26.2938C150.396 24.3135 149.669 22.3365 148.946 20.3556C148.742 19.7981 148.55 19.236 148.34 18.6837C148.275 18.5107 148.243 18.3158 148.096 18.1867C147.868 18.2443 147.875 18.4467 147.818 18.5983C146.884 21.1093 145.951 23.6216 145.018 26.1353C144.829 26.6438 144.825 26.6438 144.301 26.6444C143.295 26.6444 142.29 26.634 141.284 26.6513C140.974 26.6571 140.825 26.5775 140.719 26.2529C139.604 22.8479 138.468 19.4499 137.335 16.0483C137.093 15.3219 136.833 14.6012 136.595 13.8737C136.537 13.7001 136.429 13.5266 136.497 13.2666Z" fill="white"/>
<path d="M160.449 17.8678C160.619 16.4974 161.181 15.4152 162.195 14.57C163.162 13.7629 164.297 13.3518 165.509 13.1627C167.212 12.8975 168.907 12.9633 170.557 13.5167C172.046 14.0166 173.198 14.9125 173.783 16.4438C174.005 17.0243 174.089 17.6303 174.093 18.246C174.101 19.6683 174.093 21.09 174.096 22.5123C174.09 22.6661 174.094 22.8202 174.106 22.9735C174.175 23.542 174.472 23.8187 175.042 23.8597C175.544 23.8954 175.546 23.8954 175.548 24.4154C175.548 25.0496 175.548 25.6838 175.548 26.318C175.548 26.5134 175.517 26.6518 175.273 26.6483C174.497 26.6368 173.721 26.6737 172.952 26.525C172.142 26.3687 171.506 25.9634 171.108 25.2232C170.994 25.0116 170.904 24.8997 170.698 25.1182C169.583 26.3053 168.136 26.7141 166.599 26.8357C165.41 26.9303 164.213 26.9349 163.04 26.6299C162.467 26.4812 161.913 26.2794 161.415 25.9582C160.179 25.1609 159.635 23.9629 159.821 22.3434C160.024 20.6138 161.131 19.6914 162.662 19.184C163.573 18.8836 164.517 18.8341 165.46 18.7654C166.968 18.6555 168.475 18.5425 169.982 18.4264C170.355 18.3976 170.402 18.3446 170.386 17.9623C170.357 17.2526 170.038 16.7003 169.409 16.389C168.134 15.7548 166.811 15.7508 165.494 16.2322C164.886 16.4541 164.427 16.8837 164.211 17.534C164.159 17.6885 164.133 17.8736 163.893 17.8724C162.759 17.8678 161.624 17.8678 160.449 17.8678ZM165.898 24.073C166.422 24.1191 166.931 24.0349 167.431 23.9467C168.197 23.8118 168.939 23.5812 169.563 23.0687C170.112 22.6167 170.401 22.0425 170.389 21.3218C170.384 20.9603 170.366 20.9384 169.991 20.9603C169.539 20.9874 169.088 21.0358 168.637 21.071C167.526 21.1581 166.417 21.2376 165.304 21.3304C164.905 21.3573 164.517 21.47 164.165 21.6608C163.71 21.9139 163.464 22.2984 163.486 22.8242C163.509 23.35 163.846 23.6504 164.283 23.8487C164.441 23.9133 164.606 23.9592 164.775 23.9854C165.152 24.0574 165.526 24.1099 165.898 24.073Z" fill="white"/>
<path d="M112.368 20.9944C112.488 21.8984 112.908 22.551 113.564 23.0607C114.048 23.4357 114.614 23.6871 115.215 23.7934C116.481 24.0339 117.731 24.0304 118.956 23.5519C119.44 23.372 119.855 23.0421 120.143 22.6092C120.309 22.3579 120.481 22.2478 120.787 22.2541C121.716 22.2749 122.646 22.261 123.576 22.2633C123.686 22.2633 123.804 22.238 123.918 22.3319C123.936 22.8226 123.708 23.248 123.488 23.6678C122.783 25.0134 121.634 25.8194 120.255 26.3233C119.254 26.6824 118.2 26.8694 117.138 26.8767C115.86 26.8963 114.603 26.8081 113.381 26.4068C110.419 25.4389 108.638 23.1719 108.664 20.0322C108.695 16.3833 110.92 14.0241 114.207 13.2712C116.09 12.8399 117.97 12.9016 119.792 13.6056C122.097 14.4969 123.447 16.1838 123.814 18.6681C123.896 19.2557 123.919 19.8503 123.882 20.4426C123.853 20.9863 123.859 20.9921 123.332 20.9932C121.567 20.9959 119.802 20.9959 118.037 20.9932H112.368V20.9944ZM120.221 18.4C120.257 18.3005 120.254 18.1911 120.214 18.0933C119.924 17.2418 119.352 16.6629 118.531 16.3447C117.501 15.9457 116.44 15.8794 115.356 16.0668C114.616 16.1948 113.928 16.4502 113.352 16.946C112.917 17.3202 112.581 17.7704 112.49 18.4H120.221Z" fill="white"/>
<path d="M206.5 22.2622C206.248 23.4464 205.711 24.3648 204.875 25.1079C203.844 26.024 202.609 26.5095 201.284 26.7182C199.334 27.0255 197.389 26.9949 195.516 26.265C193.091 25.3201 191.547 23.5968 191.247 20.9356C190.866 17.5381 192.463 14.8244 195.554 13.6379C197.93 12.7264 200.355 12.7437 202.698 13.7682C204.851 14.7102 206.057 16.4404 206.355 18.799C206.435 19.4251 206.478 20.0523 206.378 20.6882C206.338 20.9454 206.249 21.0117 206.025 20.9955C205.893 20.9863 205.759 20.9955 205.626 20.9955H195.493C194.804 20.9955 194.804 21.003 195.034 21.6499C195.387 22.6502 196.115 23.2699 197.068 23.6009C198.492 24.095 199.933 24.0863 201.362 23.6009C201.931 23.4077 202.408 23.0653 202.716 22.5222C202.806 22.3648 202.899 22.2547 203.108 22.2564C204.211 22.2674 205.31 22.2622 206.5 22.2622ZM194.965 18.3994H202.771C202.6 17.379 202.003 16.739 201.133 16.3868C199.624 15.7762 198.097 15.7993 196.607 16.4704C195.794 16.8347 195.235 17.4608 194.968 18.3977L194.965 18.3994Z" fill="white"/>
<path d="M10.806 25.9572C10.7274 25.8857 10.7206 25.7911 10.7252 25.6948C10.7861 24.3861 11.0628 23.1212 11.4869 21.8897C11.5134 21.8401 11.5474 21.795 11.5877 21.756C11.6491 21.9705 11.808 22.114 11.9611 22.2553C12.5771 22.8243 13.1863 23.402 13.821 23.9491C15.677 25.5484 17.6724 26.9373 19.8591 28.039C20.2006 28.212 20.4768 28.212 20.8144 28.039C21.6774 27.5945 22.5166 27.1125 23.333 26.5856C25.2508 25.3418 27.0346 23.898 28.6554 22.2777C28.763 22.1711 28.8592 22.0471 29.0169 22.0091C29.137 22.0148 29.1598 22.1111 29.1877 22.2005C29.5862 23.3789 29.8446 24.5821 29.8344 25.8326C29.5896 25.8026 29.4558 25.9958 29.3084 26.1284C28.2267 27.0941 27.0767 27.9623 25.8925 28.7896C25.5413 29.0347 25.1467 29.229 24.8018 29.6043C25.1319 29.6619 25.3967 29.7329 25.6796 29.7398C26.7664 29.7669 27.7786 29.5259 28.6924 28.9124C28.8119 29.9992 29.4928 30.8294 30.5221 31.135C30.6132 31.1621 30.7049 31.1771 30.772 31.2503C30.6582 31.5639 30.3735 31.6982 30.1247 31.8574C29.0431 32.5567 27.8424 32.8876 26.5746 32.9528C24.6355 33.0537 22.7602 32.6858 20.9487 32.0182C20.5502 31.8706 20.1967 31.8522 19.8016 32.0044C18.7046 32.4356 17.5598 32.7297 16.3926 32.8801C14.5053 33.1107 12.6392 33.0629 10.9079 32.1174C10.498 31.8937 10.0591 31.6908 9.80518 31.2526C10.9944 30.9747 11.6805 30.1872 11.9987 29.0283C12.2167 29.0474 12.379 29.1938 12.5606 29.2912C12.8275 29.4363 13.1127 29.5437 13.4083 29.6106C14.0624 29.7548 14.7245 29.7427 15.3872 29.7259C15.5517 29.7225 15.7288 29.73 15.8774 29.5559C15.7572 29.4613 15.6496 29.3598 15.5221 29.2803C14.4791 28.6167 13.4925 27.8735 12.5213 27.1079C12.0881 26.7666 11.6725 26.4057 11.2615 26.0367C11.1476 25.9422 11.0104 25.6943 10.806 25.9572Z" fill="white"/>
<path d="M84.8679 20.0085V26.0044C84.8679 26.1387 84.8634 26.2736 84.8679 26.408C84.8719 26.5809 84.7865 26.6449 84.6248 26.6443C83.657 26.6443 82.6892 26.6409 81.7214 26.6443C81.5284 26.6443 81.4595 26.5567 81.4305 26.3774C81.369 26.0004 81.2972 25.6245 81.2175 25.2503C81.1492 24.9286 81.0542 24.8923 80.8242 25.1309C80.4103 25.5605 79.9605 25.93 79.4248 26.1981C78.5749 26.6262 77.6413 26.8565 76.6922 26.8721C75.5854 26.8946 74.4998 26.8248 73.4471 26.4224C71.6447 25.7305 70.5972 24.4016 70.1799 22.5245C70.071 21.9987 70.021 21.4622 70.0307 20.9252C70.0381 18.6006 70.0342 16.2754 70.0342 13.9492C70.0342 13.8148 70.0381 13.6799 70.0342 13.5456C70.0296 13.3617 70.0973 13.2619 70.2966 13.2631C71.3403 13.2665 72.384 13.2665 73.4278 13.2631C73.6156 13.2631 73.7124 13.3328 73.7067 13.5306C73.7027 13.6649 73.7067 13.7993 73.7067 13.9342C73.7067 16.0097 73.7113 18.0852 73.7033 20.1607C73.7032 20.5445 73.7516 20.9268 73.8473 21.2982C74.132 22.4195 74.8721 23.1315 75.9361 23.4544C77.0571 23.794 78.1934 23.7525 79.27 23.2595C80.2947 22.792 80.8862 21.9479 81.0701 20.8381C81.1529 20.3667 81.1952 19.8889 81.1965 19.41C81.1857 17.5847 81.1919 15.7595 81.1925 13.933C81.1925 13.7987 81.197 13.6643 81.1925 13.5294C81.1874 13.3305 81.2864 13.2585 81.4737 13.266C81.6445 13.2735 81.8153 13.266 81.9861 13.266C82.7831 13.266 83.5801 13.2631 84.3772 13.266C84.8594 13.266 84.8639 13.2723 84.8651 13.7814C84.8673 15.0113 84.8673 16.2412 84.8651 17.4712L84.8679 20.0085Z" fill="white"/>
<path d="M57.7394 21.4227C57.7394 22.9986 57.7394 24.5744 57.7394 26.1503C57.7394 26.6409 57.7338 26.6449 57.2345 26.6466C56.3054 26.6493 55.3755 26.6493 54.4449 26.6466C53.9963 26.6466 53.9895 26.6386 53.9895 26.1629C53.9895 23.0704 53.9895 19.9779 53.9895 16.8854C53.9895 16.1895 54.0834 16.2368 53.353 16.2362C52.651 16.2362 51.9491 16.2287 51.2465 16.2362C51.0091 16.2397 50.905 16.1682 50.905 15.9117C50.9152 15.1437 50.9186 14.3752 50.905 13.6055C50.8993 13.3104 51.0274 13.2567 51.2813 13.2596C52.0396 13.2717 52.7985 13.2677 53.5585 13.2596C53.982 13.2596 53.9866 13.2498 53.9895 12.8059C53.9934 12.2686 54.0008 11.7347 54.0976 11.202C54.4216 9.41761 55.5049 8.35565 57.1935 7.91575C58.5638 7.55657 59.9341 7.67823 61.2885 8.0697C61.5731 8.15156 61.6301 8.27494 61.5521 8.56205C61.3705 9.2464 61.2196 9.93996 61.0761 10.6335C61.0277 10.867 60.9327 10.908 60.7226 10.8411C60.2467 10.6889 59.7548 10.6681 59.2601 10.7015C58.2979 10.7655 57.7463 11.3726 57.74 12.3499C57.7343 13.2642 57.7343 13.2642 58.6293 13.2642C59.5402 13.2642 60.451 13.2608 61.3619 13.2642C61.7798 13.2642 61.7906 13.2735 61.7952 13.662C61.8031 14.3919 61.7878 15.1218 61.802 15.8528C61.8077 16.159 61.6881 16.2408 61.3984 16.2362C60.3366 16.2207 59.2743 16.2282 58.2103 16.2316C57.7474 16.2316 57.7412 16.2374 57.7406 16.6929C57.7379 18.271 57.7376 19.8476 57.7394 21.4227Z" fill="white"/>
<path d="M174.829 13.2665C175.771 13.2665 176.695 13.2607 177.619 13.2665C177.976 13.2699 178.392 13.1356 178.676 13.3276C178.961 13.5196 179.008 13.9514 179.154 14.2806C180.369 17.0049 181.582 19.7288 182.794 22.4523C182.868 22.6184 182.933 22.8029 183.158 22.9453C183.419 22.3636 183.671 21.8159 183.912 21.2641C184.98 18.8292 186.046 16.3944 187.111 13.9595C187.157 13.854 187.213 13.7525 187.249 13.6441C187.349 13.3512 187.528 13.2486 187.847 13.255C188.986 13.2774 190.121 13.2636 191.287 13.2636C191.248 13.7012 191.021 14.039 190.86 14.3936C189.651 17.0577 188.427 19.715 187.209 22.3751C186.604 23.6959 185.998 25.0167 185.402 26.3416C185.302 26.5659 185.167 26.6489 184.923 26.6466C183.691 26.6362 182.459 26.6345 181.226 26.6466C180.954 26.6495 180.838 26.5428 180.726 26.3007C179.053 22.6493 177.373 19.0018 175.686 15.3581C175.445 14.8393 175.204 14.3164 174.971 13.7917C174.904 13.6424 174.814 13.4908 174.829 13.2665Z" fill="white"/>
<path d="M107.655 23.7732C107.655 24.6732 107.655 25.5155 107.655 26.3584C107.655 26.5457 107.576 26.6299 107.392 26.6547C107.13 26.6904 106.873 26.77 106.611 26.7959C105.596 26.9055 104.579 26.9689 103.567 26.7579C101.727 26.3762 100.705 25.2013 100.561 23.3039C100.544 23.0733 100.538 22.8427 100.538 22.6121C100.538 20.6334 100.538 18.6542 100.534 16.6738C100.534 16.2408 100.522 16.2345 100.094 16.231C99.4307 16.2253 98.7668 16.2195 98.1019 16.231C97.8258 16.2368 97.7398 16.1284 97.7438 15.8603C97.7558 15.1108 97.7575 14.3613 97.7438 13.6118C97.7387 13.3236 97.8577 13.2521 98.1178 13.2561C98.8192 13.2682 99.5212 13.2642 100.224 13.2561C100.618 13.2527 100.612 13.2446 100.633 12.8353C100.683 11.8402 100.75 10.8462 100.787 9.85114C100.798 9.58767 100.901 9.53001 101.129 9.53174C102.04 9.53809 102.951 9.54327 103.862 9.53174C104.146 9.52713 104.213 9.64705 104.211 9.90764C104.2 10.8681 104.204 11.8286 104.207 12.7903C104.207 13.2515 104.214 13.2579 104.676 13.2602C105.53 13.2636 106.384 13.2602 107.238 13.2602C107.892 13.2602 107.838 13.2152 107.839 13.8944C107.839 14.4901 107.839 15.0859 107.839 15.6816C107.839 16.2212 107.835 16.2247 107.323 16.2258C106.432 16.2258 105.54 16.2258 104.648 16.2258C104.216 16.2258 104.209 16.2339 104.208 16.6651C104.208 18.5475 104.199 20.4305 104.208 22.3152C104.213 23.2203 104.663 23.723 105.551 23.8885C106.241 24.0223 106.908 23.8695 107.655 23.7732Z" fill="white"/>
<path d="M89.1586 20.1215C89.1586 18.8427 89.1586 17.7698 89.1586 16.6969C89.1586 16.2397 89.1518 16.2357 88.6872 16.2357C88.061 16.2322 87.4348 16.2391 86.8085 16.2357C86.3889 16.2322 86.3787 16.2259 86.3747 15.8321C86.3667 15.1022 86.3838 14.3717 86.3667 13.6413C86.3593 13.323 86.496 13.2562 86.7755 13.2619C87.4587 13.2769 88.1418 13.2717 88.825 13.2654C89.2605 13.2613 89.2548 13.2538 89.2747 12.8191C89.3186 11.8437 89.3812 10.8682 89.408 9.8921C89.4159 9.60384 89.5184 9.53639 89.7769 9.53927C90.6877 9.55003 91.5986 9.55003 92.5095 9.53927C92.7555 9.53927 92.8391 9.62691 92.8369 9.87482C92.8272 10.8549 92.8306 11.835 92.8369 12.8151C92.8369 13.2567 92.8448 13.2636 93.2701 13.266C94.181 13.2711 95.0919 13.266 96.0028 13.2688C96.4508 13.2688 96.4582 13.2769 96.4622 13.6984C96.4679 14.409 96.4679 15.1201 96.4622 15.8315C96.4588 16.2236 96.4508 16.2305 96.0386 16.2351C95.1277 16.2403 94.2169 16.2351 93.306 16.238C92.8443 16.238 92.838 16.2455 92.8369 16.7107C92.8342 18.4976 92.8342 20.2848 92.8369 22.0725C92.8389 22.2641 92.8559 22.4554 92.8875 22.6444C92.998 23.3276 93.3737 23.7058 94.0637 23.877C94.6695 24.028 95.2672 23.9116 95.8673 23.8522C96.292 23.8101 96.2965 23.8009 96.2994 24.2408C96.3047 24.8942 96.3047 25.5476 96.2994 26.201C96.296 26.6276 96.292 26.6392 95.873 26.7199C95.5206 26.7914 95.1641 26.8396 94.8055 26.864C93.9396 26.9084 93.0726 26.9534 92.2118 26.7735C90.39 26.3924 89.3448 25.2019 89.199 23.3143C89.1079 22.1774 89.1871 21.0462 89.1586 20.1215Z" fill="white"/>
<path d="M126.227 26.6414C126.129 26.4108 126.166 26.2153 126.166 26.0262C126.164 21.9832 126.164 17.9398 126.166 13.8961C126.166 13.1817 126.115 13.2711 126.761 13.2676C127.52 13.263 128.279 13.263 129.038 13.2676C129.486 13.2676 129.49 13.2728 129.572 13.7288C129.658 14.1976 129.734 14.6674 129.81 15.1125C130.03 15.1788 130.113 15.0491 130.191 14.9528C130.804 14.1895 131.614 13.7577 132.54 13.5386C133.371 13.3414 134.222 13.2964 135.074 13.2636C135.384 13.2521 135.458 13.3697 135.454 13.6614C135.44 14.6415 135.454 15.6216 135.447 16.6017C135.447 17.0128 135.438 17.0053 134.992 16.9638C134.043 16.8704 133.103 16.8732 132.183 17.1852C130.75 17.6706 129.849 18.9199 129.838 20.5037C129.824 22.3099 129.835 24.1162 129.834 25.923C129.834 26.077 129.83 26.2309 129.834 26.3843C129.838 26.5376 129.788 26.6454 129.614 26.6454L126.227 26.6414Z" fill="white"/>
<path d="M63.5371 17.153C63.5371 14.2184 63.5371 11.2839 63.5371 8.34933C63.5371 7.67536 63.4802 7.72726 64.1485 7.72611C65.0401 7.72611 65.9316 7.73648 66.8242 7.72091C67.126 7.71515 67.2381 7.82699 67.2085 8.12102C67.2028 8.23626 67.2028 8.35171 67.2085 8.46694V25.9295C67.2085 26.0638 67.2011 26.1987 67.2085 26.333C67.2222 26.5458 67.147 26.649 66.921 26.6472C65.8777 26.6415 64.834 26.6415 63.7899 26.6472C63.5832 26.6472 63.532 26.54 63.5377 26.359C63.5422 26.2252 63.5377 26.0903 63.5377 25.9554C63.5377 23.0205 63.5377 20.0858 63.5377 17.1512L63.5371 17.153Z" fill="white"/>
<path d="M9.16137 19.0687C9.1682 19.2463 9.08907 19.4013 9.02473 19.557C8.65232 20.4484 8.34279 21.3655 8.09848 22.3013C8.0618 22.4078 8.01668 22.5112 7.96355 22.6103C7.73982 22.5676 7.61173 22.3947 7.47623 22.2367C5.47627 19.9104 3.7342 17.4083 2.41968 14.615C1.5754 12.8208 0.944048 10.9581 0.640609 8.98748C0.369052 7.22733 0.465265 5.50698 1.16152 3.85061C1.41429 3.24929 1.72286 2.68139 2.23295 2.25476C2.36902 2.82264 2.6104 3.33115 3.04307 3.73415C3.45695 4.11927 3.91752 4.39888 4.49707 4.42194C4.46348 4.61681 4.33254 4.76325 4.24373 4.92987C3.78829 5.78544 3.65336 6.7171 3.72339 7.66031C3.88051 9.79693 4.60296 11.7698 5.54516 13.6666C6.33763 15.2647 7.31854 16.7441 8.37346 18.1739C8.60801 18.4933 8.81922 18.8415 9.16137 19.0687Z" fill="white"/>
<path d="M36.2369 4.50383C36.6053 4.32741 37.0169 4.25246 37.3402 3.96938C37.868 3.50816 38.2756 2.97948 38.365 2.25305C38.9303 2.60704 39.162 3.20952 39.4239 3.77221C40.1446 5.31501 40.2442 6.95581 40.0433 8.61507C39.7233 11.2619 38.7686 13.6885 37.5173 16.0206C36.3149 18.2593 34.8228 20.2829 33.2037 22.2194C33.0739 22.3751 32.9532 22.5654 32.7198 22.589C32.586 22.544 32.5854 22.4132 32.5581 22.31C32.2994 21.3538 31.9805 20.4154 31.6034 19.5005C31.5607 19.395 31.5168 19.2878 31.5635 19.1702C31.5931 19.1 31.6296 19.033 31.6723 18.9701C32.6634 17.7594 33.5253 16.4547 34.3115 15.0987C35.564 12.9373 36.5631 10.6744 36.8637 8.1573C37.0043 6.98176 36.9337 5.82121 36.2859 4.77308C36.2573 4.73529 36.238 4.69119 36.2295 4.6444C36.221 4.5976 36.2235 4.54943 36.2369 4.50383Z" fill="white"/>
</g>
<defs>
<clipPath id="clip0_2_713">
<rect width="206" height="33" fill="white" transform="translate(0.5)"/>
</clipPath>
</defs>
</svg>
