<svg width="47" height="42" viewBox="0 0 47 42" fill="none" xmlns="http://www.w3.org/2000/svg">
<path d="M8.75001 41.1667C8.05348 41.1667 7.46922 40.9307 6.99722 40.4587C6.52685 39.9883 6.29167 39.4049 6.29167 38.7083V21.5H2.11251C1.5389 21.5 1.14966 21.2337 0.944799 20.701C0.739938 20.1684 0.862854 19.7177 1.31355 19.349L21.8406 0.850007C22.2913 0.399312 22.8445 0.173965 23.5 0.173965C24.1556 0.173965 24.7087 0.399312 25.1594 0.850007L45.6865 19.349C46.1372 19.7177 46.2601 20.1684 46.0552 20.701C45.8504 21.2337 45.4611 21.5 44.8875 21.5H40.7083V38.7083C40.7083 39.4049 40.4723 39.9883 40.0003 40.4587C39.53 40.9307 38.9465 41.1667 38.25 41.1667C37.5535 41.1667 36.97 40.9307 36.4997 40.4587C36.0277 39.9883 35.7917 39.4049 35.7917 38.7083V36.25H11.2083V38.7083C11.2083 39.4049 10.9732 39.9883 10.5028 40.4587C10.0308 40.9307 9.44654 41.1667 8.75001 41.1667ZM17.2313 11.6667H29.7688L23.5 6.01251L17.2313 11.6667ZM11.2083 21.5H35.7917V17.075L35.2386 16.5833H11.7615L11.2083 17.075V21.5ZM11.2083 31.3333H35.7917V26.4167H11.2083V31.3333Z" fill="#17191B"/>
</svg>
