<svg width="38" height="38" viewBox="0 0 38 38" fill="none" xmlns="http://www.w3.org/2000/svg">
<path d="M16.48 0.079998V5.8H21.4V0.079998H16.48ZM2.04 3.2V12.24H6.72V7.56H31.2V12.24H36.08V3.2H2.04ZM8.12 10.12V14.2H29.72V10.12H8.12ZM12.04 17.24C19.68 22.68 19.68 30.6 17.4 32.36C16.72 33.08 15.96 33.2 14.96 33.2C13.92 33.2 12.6 33.16 11.12 33C11.96 34.36 12.4 36.28 12.48 37.6C13.68 37.68 14.88 37.72 15.88 37.68C18 37.68 19.28 37.32 20.8 36C25.08 32.92 25.16 21.64 15.72 15.08L12.04 17.24ZM18.36 11.16C14.88 14.48 8.04 16.96 1.68 18.24C2.44 19.12 3.68 21.04 4.12 21.96C10.8 20.2 18.08 17.12 22.32 12.8L18.36 11.16ZM15.24 19.12C12.4 21.28 6.6 23.68 2.24 24.72C3.12 25.68 4.12 27.32 4.64 28.36C9.12 26.8 15 23.84 18.32 21.28L15.24 19.12ZM18.48 22.92C14.76 26.52 7.12 30.28 0.8 31.84C1.72 32.88 2.76 34.6 3.32 35.8C9.68 33.68 17.48 29.44 21.76 25.36L18.48 22.92ZM24.56 11.84L20.52 12.64C22.8 22.72 26.8 30.72 34.36 34.76C35.08 33.44 36.6 31.52 37.68 30.56C30.6 27.4 26.48 20.24 24.56 11.84ZM32.36 14.44C30.28 16.44 26.72 19 24.2 20.44L27.28 23.32C29.88 22 33.36 19.76 36.12 17.68L32.36 14.44Z" fill="url(#paint0_linear_4_31)"/>
<defs>
<linearGradient id="paint0_linear_4_31" x1="32.125" y1="10.625" x2="3.375" y2="24.375" gradientUnits="userSpaceOnUse">
<stop offset="0.109375" stop-color="#BE96BD"/>
<stop offset="0.302083" stop-color="#6EBFB8"/>
<stop offset="0.666667" stop-color="#75B975"/>
<stop offset="0.916667" stop-color="#F6955C"/>
</linearGradient>
</defs>
</svg>
