<svg width="30" height="31" viewBox="0 0 30 31" fill="none" xmlns="http://www.w3.org/2000/svg">
<path d="M12.984 0.863998V5.44H16.92V0.863998H12.984ZM1.432 3.36V10.592H5.176V6.848H24.76V10.592H28.664V3.36H1.432ZM6.296 8.896V12.16H23.576V8.896H6.296ZM9.432 14.592C15.544 18.944 15.544 25.28 13.72 26.688C13.176 27.264 12.568 27.36 11.768 27.36C10.936 27.36 9.88 27.328 8.696 27.2C9.368 28.288 9.72 29.824 9.784 30.88C10.744 30.944 11.704 30.976 12.504 30.944C14.2 30.944 15.224 30.656 16.44 29.6C19.864 27.136 19.928 18.112 12.376 12.864L9.432 14.592ZM14.488 9.728C11.704 12.384 6.232 14.368 1.144 15.392C1.752 16.096 2.744 17.632 3.096 18.368C8.44 16.96 14.264 14.496 17.656 11.04L14.488 9.728ZM11.992 16.096C9.72 17.824 5.08 19.744 1.592 20.576C2.296 21.344 3.096 22.656 3.512 23.488C7.096 22.24 11.8 19.872 14.456 17.824L11.992 16.096ZM14.584 19.136C11.608 22.016 5.496 25.024 0.44 26.272C1.176 27.104 2.008 28.48 2.456 29.44C7.544 27.744 13.784 24.352 17.208 21.088L14.584 19.136ZM19.448 10.272L16.216 10.912C18.04 18.976 21.24 25.376 27.288 28.608C27.864 27.552 29.08 26.016 29.944 25.248C24.28 22.72 20.984 16.992 19.448 10.272ZM25.688 12.352C24.024 13.952 21.176 16 19.16 17.152L21.624 19.456C23.704 18.4 26.488 16.608 28.696 14.944L25.688 12.352Z" fill="white"/>
</svg>
