<svg width="73" height="20" viewBox="0 0 73 20" fill="none" xmlns="http://www.w3.org/2000/svg">
<g clip-path="url(#clip0_4_86)">
<path d="M48.5699 0.15625V14.443C50.3322 14.525 52.0897 14.6241 53.8424 14.741V17.7701C51.0626 17.5847 48.28 17.4441 45.4956 17.3482V0.15625H48.5699ZM72.9996 0.157961L68.9965 9.43894L72.9987 19.767L72.9942 19.7689C71.8273 19.6028 70.6593 19.4449 69.4902 19.2951L67.2428 13.4984L64.9739 18.757C63.8976 18.6381 62.8206 18.5259 61.7428 18.4205L65.6453 9.37678L62.0713 0.158104H65.397L67.398 5.31715L69.6231 0.157961H72.9996ZM34.9446 17.198V0.157818H43.5263V3.21412H38.0188V7.17494H42.186V10.204H38.0188V17.1975L34.9446 17.198ZM23.4652 3.21427V0.157676H32.9737V3.21412H29.7564V17.2809C28.7303 17.308 27.7053 17.3396 26.6824 17.3783V3.21427H23.4652ZM12.9554 18.2588V0.158246H21.4944V3.21441H16.0293V7.35431C17.2848 7.3382 19.0701 7.32009 20.1807 7.32265V10.352C18.7905 10.3349 17.2211 10.3711 16.0293 10.383V14.9688C17.8497 14.8254 19.6715 14.7009 21.4944 14.5953V17.6246C18.6448 17.789 15.7981 18.0006 12.9554 18.2591V18.2588ZM6.92482 11.2565L6.92467 0.157676H9.99894V18.5446C8.87514 18.66 7.75334 18.7831 6.63367 18.913L3.07364 8.68584V19.351C2.04811 19.4844 1.02338 19.624 -0.000488281 19.7696V0.157961H2.92108L6.92482 11.2565ZM56.3786 17.9527V0.157961H59.453V18.2066C58.4295 18.1154 57.405 18.0311 56.3786 17.9527Z" fill="#DB202C"/>
</g>
<defs>
<clipPath id="clip0_4_86">
<rect width="73" height="19.6758" fill="white" transform="translate(0 0.15625)"/>
</clipPath>
</defs>
</svg>
