<svg width="72" height="24" viewBox="0 0 72 24" fill="none" xmlns="http://www.w3.org/2000/svg">
<g clip-path="url(#clip0_4_76)">
<path d="M11.2015 0.875C5.01525 0.875 0 5.89011 0 12.0763C0 18.2629 5.01525 23.2776 11.2015 23.2776C17.3884 23.2776 22.4031 18.2629 22.4031 12.0763C22.4031 5.89053 17.3884 0.875563 11.2013 0.875563L11.2015 0.875ZM16.3385 17.0306C16.2907 17.1089 16.2279 17.177 16.1538 17.2311C16.0796 17.2851 15.9955 17.324 15.9063 17.3455C15.8171 17.367 15.7245 17.3707 15.6339 17.3564C15.5432 17.342 15.4563 17.31 15.378 17.262C12.7481 15.6555 9.4372 15.2917 5.53809 16.1826C5.35755 16.2237 5.16809 16.1914 5.01135 16.0928C4.85461 15.9942 4.74342 15.8375 4.70222 15.6569C4.68168 15.5676 4.67899 15.475 4.69427 15.3846C4.70956 15.2942 4.74254 15.2076 4.79132 15.13C4.84009 15.0523 4.90371 14.9851 4.97853 14.932C5.05334 14.879 5.13788 14.8412 5.22731 14.8209C9.4943 13.846 13.1543 14.2657 16.107 16.0702C16.1853 16.1181 16.2534 16.1809 16.3074 16.2551C16.3614 16.3292 16.4003 16.4133 16.4218 16.5025C16.4433 16.5917 16.447 16.6843 16.4326 16.7749C16.4183 16.8655 16.3863 16.9525 16.3384 17.0307L16.3385 17.0306ZM17.7096 13.9805C17.4566 14.3915 16.919 14.5213 16.5082 14.2684C13.4975 12.4178 8.90761 11.8817 5.34628 12.9628C5.12459 13.0299 4.88534 13.0064 4.68103 12.8973C4.47671 12.7882 4.32401 12.6025 4.25644 12.3809C4.18961 12.1593 4.21338 11.9202 4.32254 11.716C4.43169 11.5119 4.61733 11.3593 4.83877 11.2918C8.90691 10.0574 13.9642 10.6553 17.4219 12.78C17.8325 13.0329 17.9623 13.5706 17.7095 13.9807L17.7096 13.9805ZM17.8272 10.8045C14.2172 8.66028 8.26059 8.46313 4.81373 9.50938C4.26023 9.67728 3.67495 9.36481 3.50733 8.81131C3.42669 8.54541 3.45493 8.25837 3.58586 8.01329C3.71679 7.7682 3.93968 7.58514 4.20553 7.50434C8.1623 6.30313 14.74 6.53516 18.8965 9.0027C19.0149 9.07278 19.1184 9.16554 19.201 9.27567C19.2835 9.3858 19.3435 9.51113 19.3776 9.64449C19.4116 9.77785 19.419 9.91662 19.3993 10.0528C19.3797 10.1891 19.3333 10.3201 19.263 10.4383C18.9688 10.9362 18.324 11.1003 17.8277 10.8047L17.8272 10.8045ZM30.4755 11.2154C28.5414 10.7542 28.1977 10.4306 28.1977 9.75041C28.1977 9.10775 28.8022 8.67533 29.7024 8.67533C30.5745 8.67533 31.4387 9.00383 32.3456 9.67981C32.3723 9.7002 32.407 9.70836 32.4405 9.70302C32.4573 9.70061 32.4735 9.6948 32.488 9.68592C32.5025 9.67705 32.5151 9.6653 32.5249 9.65141L33.4692 8.32025C33.4878 8.29387 33.4957 8.26136 33.4913 8.22936C33.4868 8.19735 33.4703 8.16825 33.4451 8.14799C32.3657 7.28216 31.1511 6.86127 29.7305 6.86127C27.6425 6.86127 26.1833 8.11438 26.1833 9.90749C26.1833 11.8303 27.4418 12.5112 29.6169 13.0367C31.4668 13.4629 31.7797 13.82 31.7797 14.4584C31.7797 15.166 31.1483 15.606 30.1319 15.606C29.0029 15.606 28.0813 15.2249 27.0513 14.3339C27.0256 14.3123 26.9926 14.3013 26.9591 14.3033C26.9424 14.3044 26.926 14.3089 26.9111 14.3165C26.8961 14.324 26.8829 14.3345 26.872 14.3473L25.8127 15.6073C25.7914 15.6326 25.7808 15.6651 25.7831 15.6981C25.7853 15.731 25.8003 15.7618 25.8248 15.7839C27.0232 16.8541 28.4972 17.4186 30.089 17.4186C32.339 17.4186 33.7929 16.1892 33.7929 14.2858C33.7968 12.6798 32.8352 11.7903 30.4796 11.2173L30.4755 11.2154ZM38.8838 9.308C37.9087 9.308 37.1088 9.69219 36.448 10.4794V9.59347C36.448 9.52344 36.3918 9.46649 36.3223 9.46649H34.5901C34.5566 9.46667 34.5246 9.48013 34.501 9.50391C34.4774 9.52769 34.4643 9.55985 34.4644 9.59333V19.4383C34.4644 19.5078 34.5206 19.5653 34.5901 19.5653H36.3223C36.3558 19.5651 36.3878 19.5516 36.4114 19.5278C36.4349 19.504 36.4481 19.4718 36.448 19.4383V16.331C37.1088 17.0706 37.9087 17.4332 38.8837 17.4332C40.6963 17.4332 42.5315 16.0382 42.5315 13.3711C42.5341 10.7034 40.6988 9.30786 38.8851 9.30786L38.8838 9.308ZM40.517 13.3711C40.517 14.7285 39.681 15.6769 38.4825 15.6769C37.2987 15.6769 36.4051 14.6858 36.4051 13.3711C36.4051 12.0562 37.2987 11.0653 38.4825 11.0653C39.6609 11.0653 40.517 12.0347 40.517 13.3711ZM47.2331 9.308C44.899 9.308 43.0705 11.1052 43.0705 13.4002C43.0705 15.6703 44.8869 17.4479 47.205 17.4479C49.5471 17.4479 51.381 15.6569 51.381 13.3711C51.381 11.093 49.5592 9.30842 47.2331 9.30842V9.308ZM47.2331 15.6903C45.9918 15.6903 45.0555 14.6924 45.0555 13.3704C45.0555 12.0423 45.9598 11.0785 47.205 11.0785C48.4543 11.0785 49.3959 12.0759 49.3959 13.3993C49.3959 14.7273 48.4864 15.6903 47.2331 15.6903ZM56.3649 9.46649H54.4589V7.51813C54.4589 7.44824 54.4026 7.39128 54.3331 7.39128H52.6008C52.5671 7.39136 52.5349 7.40474 52.5111 7.4285C52.4873 7.45226 52.4738 7.48448 52.4737 7.51813V9.46649H51.6417C51.6082 9.46667 51.5762 9.48013 51.5526 9.50391C51.5291 9.52769 51.5159 9.55985 51.516 9.59333V11.0817C51.5159 11.1152 51.5291 11.1474 51.5526 11.1712C51.5762 11.195 51.6082 11.2085 51.6417 11.2087H52.4737V15.0604C52.4737 16.616 53.2482 17.4052 54.7771 17.4052C55.3977 17.4052 55.9126 17.2767 56.3982 17.0012C56.4179 16.9904 56.4342 16.9745 56.4455 16.9552C56.4568 16.9359 56.4627 16.9139 56.4625 16.8915V15.4736C56.4624 15.4521 56.4568 15.431 56.4463 15.4123C56.4357 15.3936 56.4206 15.3779 56.4023 15.3667C56.3841 15.355 56.3631 15.3483 56.3414 15.3474C56.3198 15.3464 56.2983 15.3512 56.2791 15.3612C55.9461 15.5286 55.6238 15.606 55.2625 15.606C54.7075 15.606 54.4587 15.3532 54.4587 14.7887V11.2095H56.3647C56.3983 11.2093 56.4303 11.1959 56.4539 11.1721C56.4775 11.1482 56.4906 11.1161 56.4905 11.0825V9.59417C56.491 9.57757 56.4882 9.56102 56.4822 9.54553C56.4762 9.53004 56.4671 9.51594 56.4555 9.50406C56.4439 9.49219 56.43 9.4828 56.4146 9.47646C56.3993 9.47013 56.3828 9.46697 56.3662 9.46719L56.3649 9.46649ZM63.0048 9.47408V9.23474C63.0048 8.53077 63.2749 8.21689 63.8795 8.21689C64.2409 8.21689 64.531 8.28861 64.8561 8.39689C64.8751 8.40329 64.8954 8.40504 64.9153 8.40199C64.9351 8.39894 64.954 8.39119 64.9702 8.37938C64.9865 8.36757 64.9996 8.35205 65.0087 8.3341C65.0177 8.31616 65.0223 8.29632 65.022 8.27624L65.0219 6.81697C65.0222 6.78971 65.0137 6.76308 64.9975 6.74113C64.9813 6.71918 64.9585 6.7031 64.9323 6.69533C64.5899 6.59324 64.1512 6.48861 63.493 6.48861C61.8946 6.48861 61.0478 7.38931 61.0478 9.09242V9.45889H60.2159C60.1823 9.45897 60.15 9.47235 60.1262 9.49611C60.1024 9.51987 60.0889 9.55209 60.0888 9.58574V11.0817C60.0888 11.1516 60.1464 11.2087 60.2159 11.2087H61.0478V17.1483C61.0478 17.2191 61.1055 17.2754 61.175 17.2754H62.9058C62.9767 17.2754 63.0329 17.2191 63.0329 17.1483V11.2091H64.6501L67.1273 17.1483C66.8464 17.7717 66.5695 17.896 66.1922 17.896C65.8873 17.896 65.565 17.8051 65.2373 17.6246C65.2063 17.6089 65.1704 17.6055 65.1369 17.6151C65.1204 17.6207 65.1052 17.6296 65.0923 17.6414C65.0794 17.6531 65.0691 17.6674 65.062 17.6833L64.4749 18.9715C64.4613 19.0007 64.4595 19.034 64.4697 19.0646C64.4799 19.0952 64.5013 19.1207 64.5297 19.136C65.1423 19.4677 65.6947 19.6095 66.3782 19.6095C67.6569 19.6095 68.3646 19.013 68.9865 17.4105L71.9909 9.64747C71.9987 9.62828 72.0015 9.60743 71.9992 9.58684C71.9969 9.56625 71.9894 9.54658 71.9775 9.52963C71.9662 9.51264 71.9509 9.49871 71.9329 9.48909C71.9149 9.47947 71.8948 9.47446 71.8744 9.4745H70.0713C70.0449 9.47435 70.0191 9.48248 69.9975 9.49773C69.9759 9.51299 69.9596 9.53461 69.951 9.55958L68.1037 14.8343L66.0812 9.55606C66.0722 9.53215 66.0561 9.51155 66.0351 9.49699C66.014 9.48242 65.9891 9.47458 65.9635 9.4745H63.0048V9.47408ZM59.1552 9.46649H57.423C57.3893 9.46663 57.3572 9.48004 57.3334 9.50379C57.3096 9.52754 57.2962 9.55972 57.296 9.59333V17.1483C57.296 17.2191 57.3535 17.2754 57.423 17.2754H59.1552C59.2248 17.2754 59.2823 17.2191 59.2823 17.1483V9.59389C59.2824 9.57719 59.2791 9.56064 59.2727 9.5452C59.2664 9.52976 59.257 9.51573 59.2452 9.50393C59.2334 9.49212 59.2193 9.48277 59.2039 9.47642C59.1884 9.47007 59.1719 9.46683 59.1552 9.46691V9.46649ZM58.299 6.02624C57.6128 6.02624 57.0565 6.5817 57.0565 7.26767C57.0565 7.43085 57.0886 7.59244 57.151 7.7432C57.2135 7.89397 57.305 8.03095 57.4204 8.14634C57.5358 8.26172 57.6728 8.35325 57.8235 8.41569C57.9743 8.47813 58.1359 8.51025 58.299 8.51024C58.9853 8.51024 59.5403 7.9542 59.5403 7.26767C59.5403 6.93847 59.4095 6.62277 59.1767 6.38998C58.9439 6.15718 58.6283 6.02635 58.299 6.02624Z" fill="#1ED760"/>
</g>
<defs>
<clipPath id="clip0_4_76">
<rect width="72" height="22.5" fill="white" transform="translate(0 0.875)"/>
</clipPath>
</defs>
</svg>
