<svg width="33" height="33" viewBox="0 0 33 33" fill="none" xmlns="http://www.w3.org/2000/svg">
<path d="M7.575 10.61V12.815H25.6V10.61H7.575ZM2.325 16.525V18.835H30.815V16.525H2.325ZM7.47 29.405V31.68H25.95V29.405H7.47ZM6.245 21.46V32.835H8.835V23.7H24.445V32.8H27.105V21.46H6.245ZM16.36 2.98C19.755 6.97 25.915 11.205 31.235 13.585C31.655 12.85 32.285 11.94 32.88 11.31C27.42 9.245 21.295 5.185 17.48 0.599999H14.925C12.09 4.625 6.245 9.14 0.225 11.695C0.75 12.255 1.415 13.235 1.73 13.795C7.61 11.1 13.35 6.76 16.36 2.98ZM15.065 7.32V17.96H17.76V7.32H15.065Z" fill="#D2D2D3"/>
</svg>
