<svg width="91" height="137" viewBox="0 0 91 137" fill="none" xmlns="http://www.w3.org/2000/svg">
<g clip-path="url(#clip0_1_127)" filter="url(#filter0_d_1_127)">
<path d="M27.1444 0.5H55.7933C56.2209 0.500137 56.6428 0.597927 57.0263 0.785822C57.4098 0.973716 57.7447 1.24669 58.0052 1.58366C58.2657 1.92064 58.4448 2.3126 58.5287 2.72929C58.6126 3.14598 58.599 3.57626 58.4889 3.98689L47.4554 45.1178C47.3454 45.5283 47.3318 45.9584 47.4155 46.3749C47.4993 46.7915 47.6782 47.1834 47.9385 47.5203C48.1988 47.8572 48.5335 48.1302 48.9168 48.3183C49.3001 48.5063 49.7217 48.6043 50.1491 48.6047H84.2079C84.6354 48.6048 85.0573 48.7026 85.4408 48.8905C85.8243 49.0784 86.1592 49.3514 86.4198 49.6884C86.6803 50.0253 86.8594 50.4173 86.9432 50.834C87.0271 51.2507 87.0135 51.6809 86.9034 52.0916L79.4901 79.7538C79.3318 80.3446 78.9815 80.8668 78.4936 81.2393C78.0058 81.6117 77.4078 81.8136 76.7926 81.8134H6.79066C6.36287 81.8133 5.94082 81.7155 5.55713 81.5275C5.17343 81.3395 4.83837 81.0663 4.57783 80.7291C4.31729 80.3919 4.13824 79.9997 4.05453 79.5828C3.97082 79.1659 3.98469 78.7354 4.09506 78.3246L24.4488 2.55775C24.6074 1.96761 24.9576 1.446 25.445 1.07392C25.9324 0.701836 26.5298 0.500089 27.1444 0.5Z" fill="#9EFC27"/>
<path d="M44.8247 88.447H73.5052C73.9326 88.4481 74.354 88.5467 74.7369 88.7353C75.1199 88.9239 75.4541 89.1974 75.7138 89.5347C75.9736 89.872 76.1519 90.264 76.2351 90.6806C76.3182 91.0972 76.304 91.5273 76.1934 91.9376L70.2571 114.018C70.0882 114.643 69.7045 115.19 69.1726 115.564L51.4995 127.993C51.1646 128.229 50.7816 128.388 50.3778 128.46C49.9739 128.531 49.5592 128.513 49.1631 128.407C48.7669 128.301 48.3992 128.11 48.086 127.847C47.7728 127.583 47.5218 127.255 47.351 126.884L38.2838 107.303C38.0117 106.716 37.9544 106.053 38.122 105.428L42.1291 90.5066C42.2873 89.9161 42.6374 89.3941 43.1248 89.0216C43.6123 88.6492 44.2098 88.4472 44.8247 88.447Z" fill="#9EFC27"/>
</g>
<defs>
<filter id="filter0_d_1_127" x="0" y="0.5" width="91" height="136" filterUnits="userSpaceOnUse" color-interpolation-filters="sRGB">
<feFlood flood-opacity="0" result="BackgroundImageFix"/>
<feColorMatrix in="SourceAlpha" type="matrix" values="0 0 0 0 0 0 0 0 0 0 0 0 0 0 0 0 0 0 127 0" result="hardAlpha"/>
<feOffset dy="4"/>
<feGaussianBlur stdDeviation="2"/>
<feComposite in2="hardAlpha" operator="out"/>
<feColorMatrix type="matrix" values="0 0 0 0 0 0 0 0 0 0 0 0 0 0 0 0 0 0 0.25 0"/>
<feBlend mode="normal" in2="BackgroundImageFix" result="effect1_dropShadow_1_127"/>
<feBlend mode="normal" in="SourceGraphic" in2="effect1_dropShadow_1_127" result="shape"/>
</filter>
<clipPath id="clip0_1_127">
<rect width="83" height="128" fill="white" transform="translate(4 0.5)"/>
</clipPath>
</defs>
</svg>
